<svg version="1.1" id="Layer_1" xmlns="http://www.w3.org/2000/svg" xmlns:xlink="http://www.w3.org/1999/xlink" x="0px" y="0px"
	 width="100%" viewBox="0 0 3003 2013" enable-background="new 0 0 3003 2013" xml:space="preserve">
<path fill="#FBD403" stroke="none" d="
	M90,0 366,50 
	Q398,83 363,92 
	L346,114 
	Q1500,231 2664,115 
	L2647,93 
	Q2612,84 2644,51 
	L2927,0 2805,220 2993,406 2813,447 2808,516 3003,504 2903,1956 2486,1984
	2265,940 2156,1998 1737,2013 1546,926 1356,2013 937,1998 836,1021 812,1370 0,1313 55,499
        220,512 216,450 28,410 218,218 90,0
z"/>
<path fill="#FFFFFF" stroke="none" d="
	M299,139
	Q1500,255 2731,138
	Q2797,300 2778,509
	Q1500,637 250,516
	Q248,314 299,139
z"/>
<path fill="#FFFFFF" stroke="none" d="M866,584 1571,608 1331,1982 964,1970 846,838 866,584 z"/>
<path fill="#0000FF" stroke="none" d="M2301,580 2971,533 2877,1928 2509,1953 2273,838 2301,580 z"/>
<path fill="#FFFFFF" stroke="none" d="M83,532 839,584 786,1338 30,1283 83,532 z"/>
<path fill="#FFFF00" stroke="none" d="M1600,605 2274,580 2226,1034 1600,1054 1560,835 1600,605 z"/>
<path fill="#FF0000" stroke="none" d="M1601,1066 2224,1044 2177,1504 1680,1520 1601,1066 z"/>
<path fill="#FFFF00" stroke="none" d="M1683,1533 2175,1517 2130,1972 1762,1984 1683,1533 z"/>
<path fill="#FFFFFF" stroke="none" d="M2666,78 2876,35 2781,199 2754,109 2699,111 2666,78 z"/>
<path fill="#FFFFFF" stroke="none" d="M142,35 345,76 309,112 271,109 247,202 142,35 z"/>
<path fill="#FFFFFF" stroke="none" d="M238,241 220,421 79,391 238,241 z"/>
<path fill="#FFFFFF" stroke="none" d="M2800,260 2940,391 2814,420 2800,260 z"/>
<path fill="#000000" stroke="none" d="
	M 523,297
	A 46 28 10 1 0 470 315
	A 103 78 10 0 1 463 482
	A 100 78 2 0 1 367 388
	L 421,392 
	A 50 34 10 1 0 469,368
	A 97 78 10 1 1 573,301
        L 523,296 z"/>
<ellipse cx="1422" cy="335" rx="88" ry="135" fill="#000000" stroke="none" transform="rotate(2)" /> 
<path fill="#000000" stroke="none" d="M2102,234 
	L 2225,228
	A 82 82 0 0 1 2230 391
	L 2165,395 2169,484 2115,487 2102, 234
z" />
<path fill="#FFFFFF" stroke="none" d="M2159,278 
	L 2163,346 2226,341
	A 34 34 0 0 0 2218 274
	L 2159,278 z" />
<path fill="#000000" stroke="none" d="
	M 1630,343
	A 85 77 -10 1 1 1798 336
	C 1801,357 1776,393 1761,400
	C 1745,412 1742,416 1718,432
	C 1695,452 1703,451 1695,467
	L 1801,466 1802,513 1628,515
	Q 1623,456 1670,414
	Q 1736,357 1730,363
	A 33 38 20 1 0 1680,342
	L 1633,343 
z"/>
<path fill="#000000" stroke="none" d="M2402,221 2609,207 2613,254 2538,260 2551,466 2498,470 2483,265 2406,269 2402,221 z"/>
<path fill="#000000" stroke="none" d="M1116,246 
	L1160,247 1150,501 1097,499 1103,327 1053,324 1054,289
	A 50 50 0 0 0 1116,246
z"/>
<path fill="#000000" stroke="none" d="M735,348 831,353 830,395 734,390 735,348 z"/>
<ellipse cx="1422" cy="335" rx="35" ry="86" fill="#FFFFFF" stroke="none" transform="rotate(2)" /> 
<circle cx="1188" cy="975" r="194" stroke = "#FBD403" stroke-width="8" fill = "#FF0000"/>
<circle cx="2626" cy="940" r="194" stroke = "#FBD403" stroke-width="8" fill = "#FFFFFF"/>
<path fill="#0000FF" stroke="#FBD403" stroke-width="8" d="M320,800 574,819 555,1073 300,1053 320,800 z"/>
</svg>
