<?xml version="1.0" encoding="utf-8"?>
<!-- Generator: Adobe Illustrator 24.0.0, SVG Export Plug-In . SVG Version: 6.00 Build 0)  -->
<svg version="1.1" xmlns="http://www.w3.org/2000/svg" xmlns:xlink="http://www.w3.org/1999/xlink" x="0px" y="0px"
	 viewBox="0 0 841.9 595.3" style="enable-background:new 0 0 841.9 595.3;" xml:space="preserve">
<style type="text/css">
	.Grafikstil_x0020_2{fill:none;stroke:#00528C;stroke-width:1.4173;stroke-miterlimit:10;}
	.st0{opacity:0.2;fill:#00528C;}
	.st1{opacity:0.3;fill:#00528C;}
	.st2{opacity:0.4;fill:#00528C;}
	.st3{opacity:0.5;fill:#00528C;}
	.st4{fill:#FFFFFF;stroke:#00528C;stroke-width:0.5669;stroke-miterlimit:10;}
	.st5{font-family:'BritannicBold';}
	.st6{font-size:44.7942px;}
	.st7{letter-spacing:-5;}
	.st8{font-size:63.3955px;}
	.st9{fill:#00528C;}
	.st10{fill:#4480C2;stroke:#00528C;stroke-width:0.5669;stroke-miterlimit:10;}
	.st11{fill:#FFFFFF;}
	.st12{font-family:'ArialMT';}
	.st13{font-size:12.6791px;}
</style>
<g id="Background">
	<path class="st0" d="M148.6,588.9H37c-17.1,0-31-13.9-31-31V37.1c0-17.1,13.9-31,31-31h111.7c17.1,0,31,13.9,31,31V558
		C179.6,575.1,165.7,588.9,148.6,588.9z"/>
	<path class="st1" d="M366.7,588.9H255c-17.1,0-31-13.9-31-31V37.1c0-17.1,13.9-31,31-31h111.7c17.1,0,31,13.9,31,31V558
		C397.6,575.1,383.8,588.9,366.7,588.9z"/>
	<path class="st2" d="M583.2,588.9H471.5c-17.1,0-31-13.9-31-31V37.1c0-17.1,13.9-31,31-31h111.7c17.1,0,31,13.9,31,31V558
		C614.1,575.1,600.3,588.9,583.2,588.9z"/>
	<path class="st3" d="M799.2,588.9H687.5c-17.1,0-31-13.9-31-31V37.1c0-17.1,13.9-31,31-31h111.7c17.1,0,31,13.9,31,31V558
		C830.2,575.1,816.3,588.9,799.2,588.9z"/>
	<text transform="matrix(1 0 0 1 19.7407 71.5767)"><tspan x="0" y="0" class="st4 st5 st6">Level</tspan><tspan x="99.4" y="0" class="st4 st5 st6 st7"> </tspan><tspan x="107.5" y="0" class="st4 st5 st8">1</tspan></text>
	<text transform="matrix(1 0 0 1 237.7339 72.415)"><tspan x="0" y="0" class="st4 st5 st6">Level</tspan><tspan x="99.4" y="0" class="st4 st5 st6 st7"> </tspan><tspan x="107.5" y="0" class="st4 st5 st8">2</tspan></text>
	<text transform="matrix(1 0 0 1 454.2002 72.415)"><tspan x="0" y="0" class="st4 st5 st6">Level</tspan><tspan x="99.4" y="0" class="st4 st5 st6 st7"> </tspan><tspan x="107.5" y="0" class="st4 st5 st8">3</tspan></text>
	<text transform="matrix(1 0 0 1 670.2891 72.415)"><tspan x="0" y="0" class="st4 st5 st6">Level</tspan><tspan x="99.4" y="0" class="st4 st5 st6 st7"> </tspan><tspan x="107.5" y="0" class="st4 st5 st8">4</tspan></text>
</g>
<g id="Lines">
	<g>
		<g>
			<line class="Grafikstil_x0020_2" x1="170" y1="191.3" x2="228.4" y2="144.5"/>
			<g>
				<polygon class="st9" points="228.5,149.1 227.4,145.2 223.9,143.4 233,140.8 				"/>
			</g>
		</g>
	</g>
	<g>
		<g>
			<line class="Grafikstil_x0020_2" x1="170" y1="197.8" x2="228.4" y2="242.5"/>
			<g>
				<polygon class="st9" points="224,243.7 227.5,241.8 228.5,237.9 233.1,246.1 				"/>
			</g>
		</g>
	</g>
	<g>
		<g>
			<line class="Grafikstil_x0020_2" x1="169.7" y1="195.1" x2="227.5" y2="195.1"/>
			<g>
				<polygon class="st9" points="224.7,198.8 226.3,195.1 224.7,191.5 233.4,195.1 				"/>
			</g>
		</g>
	</g>
	<g>
		<g>
			<line class="Grafikstil_x0020_2" x1="170.3" y1="363.8" x2="229.1" y2="322.7"/>
			<g>
				<polygon class="st9" points="229,327.3 228.1,323.4 224.8,321.3 234,319.3 				"/>
			</g>
		</g>
	</g>
	<g>
		<g>
			<line class="Grafikstil_x0020_2" x1="170.3" y1="363.8" x2="227.7" y2="389.4"/>
			<g>
				<polygon class="st9" points="223.7,391.6 226.6,388.9 226.7,384.9 233.1,391.8 				"/>
			</g>
		</g>
	</g>
	<g>
		<g>
			<line class="Grafikstil_x0020_2" x1="170" y1="471.7" x2="227.8" y2="444.5"/>
			<g>
				<polygon class="st9" points="226.8,449 226.7,445 223.7,442.4 233.1,442 				"/>
			</g>
		</g>
	</g>
	<g>
		<g>
			<line class="Grafikstil_x0020_2" x1="170" y1="471.7" x2="227.9" y2="495.1"/>
			<g>
				<polygon class="st9" points="224,497.5 226.8,494.6 226.7,490.6 233.4,497.3 				"/>
			</g>
		</g>
	</g>
	<g>
		<g>
			<line class="Grafikstil_x0020_2" x1="388" y1="320.1" x2="444.4" y2="320.1"/>
			<g>
				<polygon class="st9" points="441.6,323.8 443.2,320.1 441.6,316.5 450.3,320.1 				"/>
			</g>
		</g>
	</g>
	<g>
		<g>
			<line class="Grafikstil_x0020_2" x1="604.1" y1="320.1" x2="660.5" y2="320.1"/>
			<g>
				<polygon class="st9" points="657.7,323.8 659.2,320.1 657.7,316.5 666.4,320.1 				"/>
			</g>
		</g>
	</g>
	<g>
		<g>
			<line class="Grafikstil_x0020_2" x1="388" y1="443.4" x2="444" y2="443.4"/>
			<g>
				<polygon class="st9" points="441.2,447 442.8,443.4 441.2,439.7 449.9,443.4 				"/>
			</g>
		</g>
	</g>
	<g>
		<g>
			<line class="Grafikstil_x0020_2" x1="604.1" y1="443.4" x2="660.1" y2="443.4"/>
			<g>
				<polygon class="st9" points="657.3,447 658.8,443.4 657.3,439.7 666,443.4 				"/>
			</g>
		</g>
	</g>
</g>
<g id="Mobule">
	<path class="st10" d="M382,160.9H239.7c-3.4,0-6.1-2.7-6.1-6.1V129c0-3.4,2.7-6.1,6.1-6.1H382c3.4,0,6.1,2.7,6.1,6.1v25.8
		C388.1,158.1,385.4,160.9,382,160.9z"/>
	<path class="st10" d="M382,213.1H239.7c-3.4,0-6.1-2.7-6.1-6.1v-25.8c0-3.4,2.7-6.1,6.1-6.1H382c3.4,0,6.1,2.7,6.1,6.1V207
		C388.1,210.4,385.4,213.1,382,213.1z"/>
	<path class="st10" d="M164,213.1H21.6c-3.4,0-6.1-2.7-6.1-6.1v-25.8c0-3.4,2.7-6.1,6.1-6.1H164c3.4,0,6.1,2.7,6.1,6.1V207
		C170.1,210.4,167.3,213.1,164,213.1z"/>
	<path class="st10" d="M382,265.4H239.7c-3.4,0-6.1-2.7-6.1-6.1v-25.8c0-3.4,2.7-6.1,6.1-6.1H382c3.4,0,6.1,2.7,6.1,6.1v25.8
		C388.1,262.7,385.4,265.4,382,265.4z"/>
	<path class="st10" d="M598.5,339.2H456.2c-3.4,0-6.1-2.7-6.1-6.1v-25.8c0-3.4,2.7-6.1,6.1-6.1h142.3c3.4,0,6.1,2.7,6.1,6.1v25.8
		C604.6,336.5,601.9,339.2,598.5,339.2z"/>
	<path class="st10" d="M382.5,357.6H240.2c-3.4,0-6.1-2.7-6.1-6.1v-66c0-3.4,2.7-6.1,6.1-6.1h142.3c3.4,0,6.1,2.7,6.1,6.1v66
		C388.6,354.9,385.9,357.6,382.5,357.6z"/>
	<path class="st10" d="M814.5,339.2H672.2c-3.4,0-6.1-2.7-6.1-6.1v-25.8c0-3.4,2.7-6.1,6.1-6.1h142.3c3.4,0,6.1,2.7,6.1,6.1v25.8
		C820.7,336.5,817.9,339.2,814.5,339.2z"/>
	<path class="st10" d="M382,409.9H239.7c-3.4,0-6.1-2.7-6.1-6.1V378c0-3.4,2.7-6.1,6.1-6.1H382c3.4,0,6.1,2.7,6.1,6.1v25.8
		C388.1,407.2,385.4,409.9,382,409.9z"/>
	<path class="st10" d="M164,382.4H21.6c-3.4,0-6.1-2.7-6.1-6.1v-25.8c0-3.4,2.7-6.1,6.1-6.1H164c3.4,0,6.1,2.7,6.1,6.1v25.8
		C170.1,379.6,167.3,382.4,164,382.4z"/>
	<path class="st10" d="M164,490.8H21.6c-3.4,0-6.1-2.7-6.1-6.1v-25.8c0-3.4,2.7-6.1,6.1-6.1H164c3.4,0,6.1,2.7,6.1,6.1v25.8
		C170.1,488.1,167.3,490.8,164,490.8z"/>
	<path class="st10" d="M382,462.2H239.7c-3.4,0-6.1-2.7-6.1-6.1v-25.8c0-3.4,2.7-6.1,6.1-6.1H382c3.4,0,6.1,2.7,6.1,6.1V456
		C388.1,459.4,385.4,462.2,382,462.2z"/>
	<path class="st10" d="M598.5,462.2H456.2c-3.4,0-6.1-2.7-6.1-6.1v-25.8c0-3.4,2.7-6.1,6.1-6.1h142.3c3.4,0,6.1,2.7,6.1,6.1V456
		C604.6,459.4,601.9,462.2,598.5,462.2z"/>
	<path class="st10" d="M814.5,462.2H672.2c-3.4,0-6.1-2.7-6.1-6.1v-25.8c0-3.4,2.7-6.1,6.1-6.1h142.3c3.4,0,6.1,2.7,6.1,6.1V456
		C820.7,459.4,817.9,462.2,814.5,462.2z"/>
	<path class="st10" d="M382,514.4H239.7c-3.4,0-6.1-2.7-6.1-6.1v-25.8c0-3.4,2.7-6.1,6.1-6.1H382c3.4,0,6.1,2.7,6.1,6.1v25.8
		C388.1,511.7,385.4,514.4,382,514.4z"/>
	<text transform="matrix(1 0 0 1 243.8965 307.7513)"><tspan x="0" y="0" class="st11 st12 st13">BathymetryCoverage.01</tspan><tspan x="63.1" y="11" class="st11 st12 st13">...</tspan><tspan x="0" y="29" class="st11 st12 st13">BathymetryCoverage.nn</tspan></text>
	<text transform="matrix(1 0 0 1 495.6143 324.234)" class="st11 st12 st13">Group_001</text>
	<text transform="matrix(1 0 0 1 725.0537 324.234)" class="st11 st12 st13">values</text>
	<text transform="matrix(1 0 0 1 251.2764 147.3045)" class="st11 st12 st13">BathymetryCoverage</text>
	<text transform="matrix(1 0 0 1 33.252 368.5576)" class="st11 st12 st13">BathymetryCoverage</text>
	<text transform="matrix(1 0 0 1 67.7822 198.2908)" class="st11 st12 st13">Group_F</text>
	<text transform="matrix(1 0 0 1 264.6699 198.2908)" class="st11 st12 st13">QualityOfSurvey</text>
	<text transform="matrix(1 0 0 1 46.6465 475.79)" class="st11 st12 st13">QualityOfSurvey</text>
	<text transform="matrix(1 0 0 1 275.9321 251.3001)" class="st11 st12 st13">featureCode</text>
	<text transform="matrix(1 0 0 1 279.4697 396.0732)" class="st11 st12 st13">axisNames</text>
	<text transform="matrix(1 0 0 1 257.2656 447.4648)" class="st11 st12 st13">QualtyOfSurvey.01</text>
	<text transform="matrix(1 0 0 1 495.6143 447.4648)" class="st11 st12 st13">Group_001</text>
	<text transform="matrix(1 0 0 1 725.0537 447.4648)" class="st11 st12 st13">values</text>
	<text transform="matrix(1 0 0 1 251.6196 499.2598)" class="st11 st12 st13">featureAttributeTable</text>
</g>
</svg>
